{
  "accessors": [
    {
      "bufferView": 2,
      "componentType": 5126,
      "count": 7995,
      "max": [
        0.7946037650108337,
        0.4646075367927551,
        0.6898961663246155
      ],
      "min": [
        -0.7946040034294128,
        -0.3414974808692932,
        0.1812663972377777
      ],
      "type": "VEC3"
    },
    {
      "bufferView": 2,
      "byteOffset": 95940,
      "componentType": 5126,
      "count": 7995,
      "max": [
        1.0,
        1.0,
        1.0
      ],
      "min": [
        -1.0,
        -1.0,
        -1.0
      ],
      "type": "VEC3"
    },
    {
      "bufferView": 3,
      "componentType": 5126,
      "count": 7995,
      "max": [
        1.0,
        1.0,
        1.0,
        1.0
      ],
      "min": [
        -1.0,
        -1.0,
        -0.9999471306800842,
        -1.0
      ],
      "type": "VEC4"
    },
    {
      "bufferView": 1,
      "componentType": 5126,
      "count": 7995,
      "max": [
        0.996833086013794,
        0.9936802387237549
      ],
      "min": [
        0.0031686974689364433,
        0.003168046474456787
      ],
      "type": "VEC2"
    },
    {
      "bufferView": 1,
      "byteOffset": 63960,
      "componentType": 5126,
      "count": 7995,
      "max": [
        0.996833086013794,
        0.9936802387237549
      ],
      "min": [
        0.0031686974689364433,
        0.003168046474456787
      ],
      "type": "VEC2"
    },
    {
      "bufferView": 1,
      "byteOffset": 127920,
      "componentType": 5126,
      "count": 7995,
      "max": [
        0.996833086013794,
        0.9936802387237549
      ],
      "min": [
        0.0031686974689364433,
        0.003168046474456787
      ],
      "type": "VEC2"
    },
    {
      "bufferView": 1,
      "byteOffset": 191880,
      "componentType": 5126,
      "count": 7995,
      "max": [
        0.996833086013794,
        0.9936802387237549
      ],
      "min": [
        0.0031686974689364433,
        0.003168046474456787
      ],
      "type": "VEC2"
    },
    {
      "bufferView": 0,
      "componentType": 5125,
      "count": 32994,
      "type": "SCALAR"
    },
    {
      "bufferView": 2,
      "byteOffset": 191880,
      "componentType": 5126,
      "count": 31925,
      "max": [
        0.7879363894462585,
        0.4668295979499817,
        0.7821664810180664
      ],
      "min": [
        -0.7879366278648376,
        -0.6807404160499573,
        0.0
      ],
      "type": "VEC3"
    },
    {
      "bufferView": 2,
      "byteOffset": 574980,
      "componentType": 5126,
      "count": 31925,
      "max": [
        1.0,
        1.0,
        1.0
      ],
      "min": [
        -1.0,
        -1.0,
        -1.0
      ],
      "type": "VEC3"
    },
    {
      "bufferView": 3,
      "byteOffset": 127920,
      "componentType": 5126,
      "count": 31925,
      "max": [
        1.0,
        1.0,
        1.0,
        1.0
      ],
      "min": [
        -1.0,
        -1.0,
        -1.0,
        -1.0
      ],
      "type": "VEC4"
    },
    {
      "bufferView": 1,
      "byteOffset": 255840,
      "componentType": 5126,
      "count": 31925,
      "max": [
        0.9969804286956787,
        0.9970099925994873
      ],
      "min": [
        0.0029860094655305147,
        0.0029864460229873657
      ],
      "type": "VEC2"
    },
    {
      "bufferView": 1,
      "byteOffset": 511240,
      "componentType": 5126,
      "count": 31925,
      "max": [
        0.9969804286956787,
        0.9970099925994873
      ],
      "min": [
        0.0029860094655305147,
        0.0029864460229873657
      ],
      "type": "VEC2"
    },
    {
      "bufferView": 1,
      "byteOffset": 766640,
      "componentType": 5126,
      "count": 31925,
      "max": [
        0.9969804286956787,
        0.9970099925994873
      ],
      "min": [
        0.0029860094655305147,
        0.0029864460229873657
      ],
      "type": "VEC2"
    },
    {
      "bufferView": 1,
      "byteOffset": 1022040,
      "componentType": 5126,
      "count": 31925,
      "max": [
        0.9969804286956787,
        0.9970099925994873
      ],
      "min": [
        0.0029860094655305147,
        0.0029864460229873657
      ],
      "type": "VEC2"
    },
    {
      "bufferView": 0,
      "byteOffset": 131976,
      "componentType": 5125,
      "count": 136812,
      "type": "SCALAR"
    }
  ],
  "asset": {
    "extras": {
      "author": "MozzarellaARC (https://sketchfab.com/mozzarellaARC)",
      "license": "CC-BY-4.0 (http://creativecommons.org/licenses/by/4.0/)",
      "source": "https://sketchfab.com/3d-models/sanremo-opera-coffee-machines-3e4d9ec6f9a946eab6870c1f1e15094f",
      "title": "Sanremo Opera Coffee Machines"
    },
    "generator": "Sketchfab-16.56.0",
    "version": "2.0"
  },
  "bufferViews": [
    {
      "buffer": 0,
      "byteLength": 679224,
      "name": "floatBufferViews",
      "target": 34963
    },
    {
      "buffer": 0,
      "byteLength": 1277440,
      "byteOffset": 679224,
      "byteStride": 8,
      "name": "floatBufferViews",
      "target": 34962
    },
    {
      "buffer": 0,
      "byteLength": 958080,
      "byteOffset": 1956664,
      "byteStride": 12,
      "name": "floatBufferViews",
      "target": 34962
    },
    {
      "buffer": 0,
      "byteLength": 638720,
      "byteOffset": 2914744,
      "byteStride": 16,
      "name": "floatBufferViews",
      "target": 34962
    }
  ],
  "buffers": [
    {
      "byteLength": 3553464,
      "uri": "scene.bin"
    }
  ],
  "images": [
    {
      "uri": "textures/M_SanremoOpera20_Black_01_baseColor.png"
    },
    {
      "uri": "textures/M_SanremoOpera20_Black_01_metallicRoughness.png"
    },
    {
      "uri": "textures/M_SanremoOpera20_Black_01_emissive.png"
    },
    {
      "uri": "textures/M_SanremoOpera20_Black_01_normal.png"
    },
    {
      "uri": "textures/M_SanremoOpera20_Black_02_baseColor.png"
    },
    {
      "uri": "textures/M_SanremoOpera20_Black_02_metallicRoughness.png"
    },
    {
      "uri": "textures/M_SanremoOpera20_Black_02_emissive.png"
    },
    {
      "uri": "textures/M_SanremoOpera20_Black_02_normal.png"
    }
  ],
  "materials": [
    {
      "doubleSided": true,
      "emissiveFactor": [
        1.0,
        1.0,
        1.0
      ],
      "emissiveTexture": {
        "index": 2
      },
      "name": "M_SanremoOpera20_Black_01",
      "normalTexture": {
        "index": 3
      },
      "pbrMetallicRoughness": {
        "baseColorTexture": {
          "index": 0
        },
        "metallicRoughnessTexture": {
          "index": 1
        }
      }
    },
    {
      "doubleSided": true,
      "emissiveFactor": [
        1.0,
        1.0,
        1.0
      ],
      "emissiveTexture": {
        "index": 6
      },
      "name": "M_SanremoOpera20_Black_02",
      "normalTexture": {
        "index": 7
      },
      "pbrMetallicRoughness": {
        "baseColorTexture": {
          "index": 4
        },
        "metallicRoughnessTexture": {
          "index": 5
        }
      }
    }
  ],
  "meshes": [
    {
      "name": "SM_SanremoOpera_Black_M_SanremoOpera20_Black_01_0",
      "primitives": [
        {
          "attributes": {
            "NORMAL": 1,
            "POSITION": 0,
            "TANGENT": 2,
            "TEXCOORD_0": 3,
            "TEXCOORD_1": 4,
            "TEXCOORD_2": 5,
            "TEXCOORD_3": 6
          },
          "indices": 7,
          "material": 0,
          "mode": 4
        }
      ]
    },
    {
      "name": "SM_SanremoOpera_Black_M_SanremoOpera20_Black_02_0",
      "primitives": [
        {
          "attributes": {
            "NORMAL": 9,
            "POSITION": 8,
            "TANGENT": 10,
            "TEXCOORD_0": 11,
            "TEXCOORD_1": 12,
            "TEXCOORD_2": 13,
            "TEXCOORD_3": 14
          },
          "indices": 15,
          "material": 1,
          "mode": 4
        }
      ]
    }
  ],
  "nodes": [
    {
      "children": [
        1
      ],
      "matrix": [
        1.0,
        0.0,
        0.0,
        0.0,
        0.0,
        2.220446049250313e-16,
        -1.0,
        0.0,
        0.0,
        1.0,
        2.220446049250313e-16,
        0.0,
        0.0,
        0.0,
        0.0,
        1.0
      ],
      "name": "Sketchfab_model"
    },
    {
      "children": [
        2
      ],
      "matrix": [
        0.009999999776482582,
        0.0,
        0.0,
        0.0,
        0.0,
        0.0,
        0.009999999776482582,
        0.0,
        0.0,
        -0.009999999776482582,
        0.0,
        0.0,
        0.0,
        0.0,
        0.0,
        1.0
      ],
      "name": "ce90f337359147bcb8bdf531cad435b5.fbx"
    },
    {
      "children": [
        3
      ],
      "name": "RootNode"
    },
    {
      "children": [
        4,
        5
      ],
      "matrix": [
        100.0,
        0.0,
        0.0,
        0.0,
        0.0,
        -1.629206793918314e-05,
        -99.99999999999868,
        0.0,
        0.0,
        99.99999999999868,
        -1.629206793918314e-05,
        0.0,
        1.080334186553955e-05,
        0.0,
        0.0,
        1.0
      ],
      "name": "SM_SanremoOpera_Black"
    },
    {
      "mesh": 0,
      "name": "SM_SanremoOpera_Black_M_SanremoOpera20_Black_01_0"
    },
    {
      "mesh": 1,
      "name": "SM_SanremoOpera_Black_M_SanremoOpera20_Black_02_0"
    }
  ],
  "samplers": [
    {
      "magFilter": 9729,
      "minFilter": 9987,
      "wrapS": 10497,
      "wrapT": 10497
    }
  ],
  "scene": 0,
  "scenes": [
    {
      "name": "Sketchfab_Scene",
      "nodes": [
        0
      ]
    }
  ],
  "textures": [
    {
      "sampler": 0,
      "source": 0
    },
    {
      "sampler": 0,
      "source": 1
    },
    {
      "sampler": 0,
      "source": 2
    },
    {
      "sampler": 0,
      "source": 3
    },
    {
      "sampler": 0,
      "source": 4
    },
    {
      "sampler": 0,
      "source": 5
    },
    {
      "sampler": 0,
      "source": 6
    },
    {
      "sampler": 0,
      "source": 7
    }
  ]
}
